<svg width="222" height="138" viewBox="0 0 222 138" fill="none" xmlns="http://www.w3.org/2000/svg">
<path fill-rule="evenodd" clip-rule="evenodd" d="M181.74 69.1928C187.471 68.7016 192.006 71.0231 195.587 75.35C195.59 73.5755 195.665 71.7039 195.709 69.9223C197.322 69.9689 199.051 69.9495 200.672 69.9594C200.616 81.7594 200.62 93.5598 200.683 105.36C199.565 105.375 196.715 105.638 195.938 105.095C195.371 104.371 195.694 101.466 195.739 100.365C194.375 101.53 193.437 102.592 191.947 103.641C185.805 107.327 176.78 107.088 171.39 102.075C160.033 91.5116 165.189 70.1789 181.74 69.1928ZM196.334 87.1264C195.977 79.7763 189.734 74.1251 182.425 74.5356C175.189 74.9423 169.635 81.1423 169.988 88.4194C170.341 95.6965 176.469 101.324 183.711 101.02C191.025 100.713 196.692 94.4766 196.334 87.1264Z" fill="#504b4d"/>
<path fill-rule="evenodd" clip-rule="evenodd" d="M28.9567 69.1742C34.6115 68.9542 38.7506 71.0079 42.4547 75.1869C42.5035 73.5768 42.5356 71.9471 42.6578 70.3422L43.2164 69.9418L47.4401 69.933L47.4381 105.378L42.5367 105.353L42.4332 100.319C38.9794 104.101 35.4803 105.922 30.3297 106.152C25.8871 106.35 21.5072 105.043 18.2662 101.921C14.3083 98.1091 12.2369 94.0564 12.0836 88.5267C11.7914 83.028 13.4451 78.5051 17.192 74.4545C20.2646 71.1329 24.4458 69.3498 28.9567 69.1742ZM43.2203 86.5131C42.5375 79.2506 36.1486 73.9061 28.9205 74.5511C21.6345 75.2015 16.2657 81.6875 16.9537 89.0082C17.642 96.3292 24.1246 101.69 31.403 100.956C38.6233 100.229 43.9031 93.7755 43.2203 86.5131Z" fill="#504b4d"/>
<path fill-rule="evenodd" clip-rule="evenodd" d="M200.547 9.2176C200.993 9.27914 201.156 9.06987 201.636 9.40119C202.319 10.605 201.455 20.2748 201.192 22.1258C200.865 24.4911 200.399 26.8359 199.799 29.1463C198.307 34.6534 195.79 40.4453 192.622 45.2684C190.749 48.1183 186.724 51.3724 183.841 53.2742C178.32 56.352 170.4 57.1996 164.201 56.325C162.442 56.0768 157.568 54.7539 155.768 54.244C148.534 52.0344 141.275 49.3976 134.282 53.949C132.84 54.8882 130.56 56.2016 129.437 57.5535C127.045 60.4309 124.759 63.4327 122.264 66.2303C118.998 69.892 117.092 72.3693 112.023 73.2391C107.632 71.9357 106.469 68.0545 105.621 64.0809C104.579 65.7298 103.399 67.1095 102.094 68.5467C101.912 68.7474 101.498 69.1593 101.375 69.366C99.4926 71.2307 97.0521 70.5216 95.0264 69.3963C94.9914 69.0072 93.9074 66.7685 93.6933 66.2528C92.2135 62.6838 92.6262 58.9241 92.2344 55.1863C89.7858 57.9493 88.073 62.7781 85.8389 65.8748C82.3636 70.6915 80.9824 67.7678 80.3467 63.5037C78.5379 65.9427 74.3806 68.6066 71.2812 67.3465C68.4718 66.2039 67.0551 62.6795 65.9189 60.075C65.1723 61.7217 62.0156 67.9374 60.3808 68.6238C59.5813 68.9593 58.1625 68.3606 57.3535 68.0037C54.9781 62.0572 59.6152 49.9939 66.168 48.0067C68.35 47.345 71.5633 48.9028 71.9492 51.2996C72.2512 53.1762 71.0749 53.5999 69.7568 52.5125L69.4912 52.2752C68.9101 51.7479 68.3172 51.2335 67.7129 50.7332C63.9187 52.723 62.251 55.7229 60.9453 59.7449C60.6277 60.7234 59.957 62.9282 60.3506 63.8738L60.4678 63.8904C62.5526 61.6301 64.2853 54.2228 67.6377 52.6444C67.8169 52.56 68.3063 53.0967 68.4404 53.2449V53.2459C70.7318 57.2153 67.1828 61.4511 73.0303 64.5613C76.5617 63.7646 78.1286 61.9834 80.2275 59.2049C81.5787 57.4161 83.8995 46.6476 86.7109 48.244C87.9118 49.6658 86.3039 53.1566 86.0947 54.8045C86.1043 54.9909 86.0978 55.1734 86.082 55.3533C86.0977 55.1737 86.1033 54.9915 86.0937 54.8055C85.2664 57.4531 84.4109 60.2642 84.3711 63.0389C85.1863 61.7899 87.453 57.8598 88.0254 56.4735C87.954 56.4971 87.8845 56.5317 87.8174 56.577L87.7187 56.6522C87.8166 56.5698 87.9183 56.5079 88.0254 56.4725C89.2341 54.9691 90.988 51.7384 92.9824 51.4637C95.1574 51.1644 95.0187 55.8216 95.1387 57.1346C95.4771 60.8406 95.0399 65.4256 98.4277 67.8279C101.36 65.9763 104.883 61.1889 105.721 57.6805C106.192 55.7045 106.627 51.3009 108.17 49.8514C108.56 49.4852 110.042 49.5312 110.645 49.5379C111.008 52.4274 110.345 55.3733 109.958 58.2401C109.7 60.1558 109.277 70.7063 112.882 69.6893C119.204 67.9047 123.047 59.5746 127.551 55.1863C131.916 51.0786 136.683 48.6395 142.594 48.5115C151.051 48.3285 157.816 52.4449 165.959 53.7576C170.455 54.408 176.307 53.5126 180.388 51.4559C184.063 49.6027 187.722 46.4213 190.16 43.0613C196.093 34.4908 198.323 23.6065 199.122 13.367C199.209 12.2472 199.388 9.05841 200.547 9.2176ZM85.9072 59.6199C85.7167 59.8262 85.516 59.9249 85.2939 59.8436C85.129 59.4977 85.1241 59.2689 85.2031 59.0477C85.1246 59.2687 85.1302 59.4972 85.2949 59.8426C85.5166 59.9235 85.717 59.8256 85.9072 59.6199ZM86.2627 59.1053C86.2012 59.2126 86.1389 59.3121 86.0762 59.4022C86.1389 59.3121 86.2012 59.2126 86.2627 59.1053ZM87.0137 57.6395C86.8086 58.0237 86.6143 58.4452 86.4209 58.8182C86.6143 58.4453 86.8086 58.0238 87.0137 57.6395ZM87.5283 56.8426C87.4612 56.9204 87.3986 57.0089 87.3349 57.1024C87.3694 57.0518 87.4011 57.0011 87.4365 56.9549L87.5283 56.8426ZM86.0078 55.8748C85.9473 56.1994 85.8672 56.5199 85.7861 56.8426C85.8671 56.5199 85.9474 56.1994 86.0078 55.8748Z" fill="#E8A210"/>
<path fill-rule="evenodd" clip-rule="evenodd" d="M101.377 69.3672C103.344 69.9654 107.486 71.6852 108.929 73.1533C113.523 77.8257 114.684 82.1251 115.063 88.3008L85.1354 88.3125C85.2941 89.7996 85.4773 91.3498 85.861 92.8037C86.8913 96.6687 90.5243 100.249 94.4274 101.124C101.21 102.645 106.684 98.717 109.907 93.0176C111.03 93.7371 112.733 94.7715 113.907 95.3105C113.002 97.4079 111.074 100.561 109.373 102.111C103.495 107.466 91.1175 107.768 85.5749 101.748C81.838 97.6893 79.6415 92.6293 79.863 87.043C80.087 81.6904 82.4091 76.6447 86.3219 73.0078C88.2742 71.1987 92.4674 69.2995 95.028 69.3975C97.0537 70.5228 99.4942 71.2319 101.377 69.3672ZM102.176 75.0605C100.296 74.2568 98.2417 73.9494 96.2096 74.168C90.7956 74.865 86.911 78.3633 85.7419 83.7158C90.2959 83.7436 94.8499 83.7468 99.404 83.7246C102.807 83.7534 106.21 83.7367 109.613 83.6748C108.081 79.7227 106.27 76.8544 102.176 75.0605Z" fill="#504b4d"/>
<path d="M141.212 69.1898C141.55 69.1588 141.889 69.1445 142.23 69.1467C145.349 69.1369 148.953 70.2359 151.149 72.5051C155.712 77.221 155.109 85.6393 155.111 91.6641V105.382L150.256 105.356C150.133 97.2901 150.594 89.1 149.804 81.0693C149.691 79.9261 149.039 78.3624 148.413 77.4055C147.312 75.6889 145.577 74.4831 143.592 74.0543C140.853 73.4914 138.483 74.1522 136.205 75.6745C129.306 80.7687 130.391 87.7474 130.392 95.4524C130.384 98.7546 130.399 102.057 130.437 105.359L125.508 105.383L125.524 69.9213L130.453 69.9583C130.458 71.5744 130.456 73.6047 130.244 75.1819C133.657 71.8277 136.208 69.5928 141.212 69.1898Z" fill="#504b4d"/>
<path fill-rule="evenodd" clip-rule="evenodd" d="M56.8314 24.8721C59.6581 25.6139 57.0462 33.0399 56.5951 34.7021C56.1443 36.3621 55.7222 38.0303 55.3295 39.7051C53.0268 49.3868 53.2196 59.3827 53.3646 69.2646C53.2956 74.5918 53.4194 79.8824 53.8959 85.1914C54.1063 87.5356 53.44 87.6197 51.5765 86.8965C49.3124 81.1343 50.0632 67.2728 50.1771 60.7217C50.2057 59.0739 50.2093 56.9162 50.2884 55.2549C48.1542 58.837 47.2837 62.946 45.3461 66.6738C44.7156 67.887 44.0122 68.842 43.2152 69.9414L42.6566 70.3428C41.5296 70.4535 41.1743 70.4467 40.0834 70.3184C37.9421 68.9594 37.8212 66.7032 38.0287 64.3506C38.563 58.2961 41.1615 51.6324 45.5824 47.3789C47.0401 45.9767 48.4411 46.1815 50.264 46.3252C52.3587 41.2703 52.6215 28.8265 55.5502 25.5674C55.9179 25.1584 56.2713 24.8979 56.8314 24.8721ZM48.3275 48.8721C44.8095 51.4969 41.931 57.8518 41.3646 62.168C41.2102 63.345 41.0611 65.9483 41.4554 66.9854L41.6654 67.0908C42.4728 65.6633 43.757 63.6366 44.35 62.1748C45.7782 58.6536 47.0972 55.0417 48.5043 51.5029C48.8355 50.6694 49.2201 49.3759 48.3275 48.8721Z" fill="#E8A210"/>
<path d="M70.2703 69.1572C72.6492 69.0234 73.7021 69.3432 75.71 70.5755C74.8216 71.9675 73.9587 73.3759 73.1218 74.7998C72.383 74.5237 71.5391 74.2517 70.7503 74.2284C67.1542 74.1221 64.4899 78.2593 63.7884 81.4091C62.8782 85.4964 62.9882 90.0019 62.9905 94.1705L62.9988 105.382L60.1921 105.373L57.8047 105.355C57.9223 98.9907 57.8572 92.4416 57.845 86.0691C57.8773 80.6973 57.8641 75.3255 57.8052 69.9541C59.5053 69.9146 61.2858 69.9352 62.9925 69.9305C62.987 71.2531 63.0102 72.5755 63.062 73.897C65.1153 71.5171 67.0942 69.8392 70.2703 69.1572Z" fill="#504b4d"/>
<path d="M111.775 34.8828C114.69 35.6979 115.708 40.0844 112.495 41.4808C108.675 41.6286 109.184 36.4931 111.775 34.8828Z" fill="#E8A210"/>
</svg>
